<svg width="14" height="10" viewBox="0 0 14 10" fill="none" xmlns="http://www.w3.org/2000/svg">
<path d="M5.35421 9.27945C5.22295 9.27972 5.09292 9.25406 4.97159 9.20396C4.85027 9.15385 4.74003 9.08027 4.64721 8.98745L0.405213 4.74445C0.30964 4.65227 0.233381 4.54198 0.180888 4.42002C0.128394 4.29805 0.100717 4.16685 0.0994704 4.03407C0.0982236 3.9013 0.123433 3.7696 0.173627 3.64667C0.223821 3.52374 0.297994 3.41204 0.39182 3.31808C0.485645 3.22412 0.597243 3.14979 0.720103 3.09942C0.842962 3.04905 0.974622 3.02366 1.1074 3.02472C1.24018 3.02578 1.37142 3.05327 1.49346 3.10559C1.6155 3.15791 1.7259 3.23401 1.81821 3.32945L5.35321 6.86445L11.7182 0.501455C11.9057 0.313814 12.1601 0.208346 12.4254 0.208252C12.6906 0.208158 12.9451 0.313447 13.1327 0.500955C13.3204 0.688463 13.4258 0.942831 13.4259 1.2081C13.426 1.47337 13.3207 1.72781 13.1332 1.91545L6.06121 8.98745C5.96839 9.08027 5.85816 9.15385 5.73683 9.20396C5.61551 9.25406 5.48548 9.27972 5.35421 9.27945Z" fill="#2FAB73"/>
</svg>
