<svg width="181" height="55" viewBox="0 0 181 55" fill="none" xmlns="http://www.w3.org/2000/svg">
<path d="M67.04 34.1162C66.9067 34.1162 66.7933 34.0695 66.7 33.9762C66.6067 33.8829 66.56 33.7695 66.56 33.6362V20.6162C66.56 20.4695 66.6067 20.3495 66.7 20.2562C66.7933 20.1629 66.9067 20.1162 67.04 20.1162H71.92C73.2667 20.1162 74.3733 20.3229 75.24 20.7362C76.12 21.1495 76.78 21.7629 77.22 22.5762C77.6733 23.3895 77.9067 24.3829 77.92 25.5562C77.9467 26.1429 77.96 26.6629 77.96 27.1162C77.96 27.5695 77.9467 28.0829 77.92 28.6562C77.8933 29.8962 77.6667 30.9229 77.24 31.7362C76.8133 32.5362 76.1667 33.1362 75.3 33.5362C74.4467 33.9229 73.3533 34.1162 72.02 34.1162H67.04ZM69.34 31.8162H71.92C72.6667 31.8162 73.2733 31.7095 73.74 31.4962C74.2067 31.2829 74.5467 30.9429 74.76 30.4762C74.9867 29.9962 75.1067 29.3695 75.12 28.5962C75.1333 28.1962 75.14 27.8495 75.14 27.5562C75.1533 27.2495 75.1533 26.9495 75.14 26.6562C75.14 26.3495 75.1333 26.0029 75.12 25.6162C75.0933 24.5229 74.82 23.7162 74.3 23.1962C73.78 22.6762 72.9533 22.4162 71.82 22.4162H69.34V31.8162ZM84.9825 34.3162C83.9158 34.3162 83.0158 34.1295 82.2825 33.7562C81.5625 33.3829 81.0092 32.8562 80.6225 32.1762C80.2492 31.4962 80.0358 30.7029 79.9825 29.7962C79.9692 29.5562 79.9625 29.2629 79.9625 28.9162C79.9625 28.5695 79.9692 28.2762 79.9825 28.0362C80.0358 27.1162 80.2558 26.3229 80.6425 25.6562C81.0425 24.9762 81.6025 24.4495 82.3225 24.0762C83.0558 23.7029 83.9425 23.5162 84.9825 23.5162C86.0225 23.5162 86.9025 23.7029 87.6225 24.0762C88.3558 24.4495 88.9158 24.9762 89.3025 25.6562C89.7025 26.3229 89.9292 27.1162 89.9825 28.0362C89.9958 28.2762 90.0025 28.5695 90.0025 28.9162C90.0025 29.2629 89.9958 29.5562 89.9825 29.7962C89.9292 30.7029 89.7092 31.4962 89.3225 32.1762C88.9492 32.8562 88.3958 33.3829 87.6625 33.7562C86.9425 34.1295 86.0492 34.3162 84.9825 34.3162ZM84.9825 32.3362C85.6892 32.3362 86.2358 32.1162 86.6225 31.6762C87.0092 31.2229 87.2225 30.5629 87.2625 29.6962C87.2758 29.4962 87.2825 29.2362 87.2825 28.9162C87.2825 28.5962 87.2758 28.3362 87.2625 28.1362C87.2225 27.2829 87.0092 26.6295 86.6225 26.1762C86.2358 25.7229 85.6892 25.4962 84.9825 25.4962C84.2758 25.4962 83.7292 25.7229 83.3425 26.1762C82.9558 26.6295 82.7425 27.2829 82.7025 28.1362C82.6892 28.3362 82.6825 28.5962 82.6825 28.9162C82.6825 29.2362 82.6892 29.4962 82.7025 29.6962C82.7425 30.5629 82.9558 31.2229 83.3425 31.6762C83.7292 32.1162 84.2758 32.3362 84.9825 32.3362ZM92.7184 34.1162C92.5851 34.1162 92.4718 34.0695 92.3784 33.9762C92.2851 33.8829 92.2384 33.7695 92.2384 33.6362V20.3962C92.2384 20.2629 92.2851 20.1495 92.3784 20.0562C92.4718 19.9629 92.5851 19.9162 92.7184 19.9162H94.3784C94.5118 19.9162 94.6251 19.9629 94.7184 20.0562C94.8118 20.1495 94.8584 20.2629 94.8584 20.3962V33.6362C94.8584 33.7695 94.8118 33.8829 94.7184 33.9762C94.6251 34.0695 94.5118 34.1162 94.3784 34.1162H92.7184ZM98.0114 37.9162C97.8781 37.9162 97.7647 37.8695 97.6714 37.7762C97.5781 37.6829 97.5314 37.5695 97.5314 37.4362V24.1962C97.5314 24.0629 97.5781 23.9495 97.6714 23.8562C97.7647 23.7629 97.8781 23.7162 98.0114 23.7162H99.5914C99.7381 23.7162 99.8514 23.7629 99.9314 23.8562C100.025 23.9495 100.071 24.0629 100.071 24.1962V24.9962C100.391 24.5695 100.811 24.2162 101.331 23.9362C101.851 23.6562 102.498 23.5162 103.271 23.5162C103.978 23.5162 104.591 23.6295 105.111 23.8562C105.631 24.0829 106.065 24.4095 106.411 24.8362C106.758 25.2495 107.025 25.7429 107.211 26.3162C107.398 26.8895 107.505 27.5229 107.531 28.2162C107.545 28.4429 107.551 28.6762 107.551 28.9162C107.551 29.1562 107.545 29.3962 107.531 29.6362C107.518 30.3029 107.418 30.9229 107.231 31.4962C107.045 32.0562 106.771 32.5495 106.411 32.9762C106.065 33.3895 105.631 33.7162 105.111 33.9562C104.591 34.1962 103.978 34.3162 103.271 34.3162C102.551 34.3162 101.938 34.1895 101.431 33.9362C100.925 33.6695 100.511 33.3229 100.191 32.8962V37.4362C100.191 37.5695 100.145 37.6829 100.051 37.7762C99.9714 37.8695 99.8581 37.9162 99.7114 37.9162H98.0114ZM102.531 32.1762C103.105 32.1762 103.551 32.0562 103.871 31.8162C104.191 31.5629 104.418 31.2362 104.551 30.8362C104.698 30.4362 104.785 29.9962 104.811 29.5162C104.838 29.1162 104.838 28.7162 104.811 28.3162C104.785 27.8362 104.698 27.3962 104.551 26.9962C104.418 26.5962 104.191 26.2762 103.871 26.0362C103.551 25.7829 103.105 25.6562 102.531 25.6562C101.985 25.6562 101.538 25.7829 101.191 26.0362C100.858 26.2895 100.611 26.6162 100.451 27.0162C100.305 27.4029 100.218 27.8029 100.191 28.2162C100.178 28.4562 100.171 28.7095 100.171 28.9762C100.171 29.2429 100.178 29.5029 100.191 29.7562C100.205 30.1562 100.298 30.5429 100.471 30.9162C100.645 31.2762 100.898 31.5762 101.231 31.8162C101.565 32.0562 101.998 32.1762 102.531 32.1762ZM110.297 34.1162C110.163 34.1162 110.05 34.0695 109.957 33.9762C109.863 33.8829 109.817 33.7695 109.817 33.6362V20.3962C109.817 20.2629 109.863 20.1495 109.957 20.0562C110.05 19.9629 110.163 19.9162 110.297 19.9162H112.077C112.223 19.9162 112.337 19.9629 112.417 20.0562C112.51 20.1495 112.557 20.2629 112.557 20.3962V24.9562C112.917 24.5295 113.357 24.1829 113.877 23.9162C114.397 23.6495 115.037 23.5162 115.797 23.5162C116.61 23.5162 117.317 23.7029 117.917 24.0762C118.53 24.4362 119.003 24.9495 119.337 25.6162C119.67 26.2829 119.837 27.0829 119.837 28.0162V33.6362C119.837 33.7695 119.79 33.8829 119.697 33.9762C119.603 34.0695 119.49 34.1162 119.357 34.1162H117.557C117.423 34.1162 117.31 34.0695 117.217 33.9762C117.123 33.8829 117.077 33.7695 117.077 33.6362V28.1362C117.077 27.3629 116.883 26.7562 116.497 26.3162C116.123 25.8762 115.577 25.6562 114.857 25.6562C114.163 25.6562 113.603 25.8762 113.177 26.3162C112.763 26.7562 112.557 27.3629 112.557 28.1362V33.6362C112.557 33.7695 112.51 33.8829 112.417 33.9762C112.337 34.0695 112.223 34.1162 112.077 34.1162H110.297ZM122.855 34.1162C122.721 34.1162 122.608 34.0695 122.515 33.9762C122.421 33.8829 122.375 33.7695 122.375 33.6362V24.1962C122.375 24.0629 122.421 23.9495 122.515 23.8562C122.608 23.7629 122.721 23.7162 122.855 23.7162H124.515C124.661 23.7162 124.775 23.7629 124.855 23.8562C124.948 23.9495 124.995 24.0629 124.995 24.1962V33.6362C124.995 33.7695 124.948 33.8829 124.855 33.9762C124.775 34.0695 124.661 34.1162 124.515 34.1162H122.855ZM122.775 21.9962C122.628 21.9962 122.508 21.9562 122.415 21.8762C122.335 21.7829 122.295 21.6629 122.295 21.5162V20.0762C122.295 19.9429 122.335 19.8295 122.415 19.7362C122.508 19.6429 122.628 19.5962 122.775 19.5962H124.595C124.741 19.5962 124.861 19.6429 124.955 19.7362C125.048 19.8295 125.095 19.9429 125.095 20.0762V21.5162C125.095 21.6629 125.048 21.7829 124.955 21.8762C124.861 21.9562 124.741 21.9962 124.595 21.9962H122.775ZM128.538 34.1162C128.405 34.1162 128.292 34.0695 128.198 33.9762C128.105 33.8829 128.058 33.7695 128.058 33.6362V24.1962C128.058 24.0629 128.105 23.9495 128.198 23.8562C128.292 23.7629 128.405 23.7162 128.538 23.7162H130.178C130.312 23.7162 130.425 23.7629 130.518 23.8562C130.612 23.9495 130.658 24.0629 130.658 24.1962V25.0162C131.005 24.5895 131.445 24.2362 131.978 23.9562C132.525 23.6629 133.198 23.5162 133.998 23.5162C134.812 23.5162 135.518 23.7029 136.118 24.0762C136.718 24.4362 137.178 24.9495 137.498 25.6162C137.832 26.2829 137.998 27.0829 137.998 28.0162V33.6362C137.998 33.7695 137.952 33.8829 137.858 33.9762C137.765 34.0695 137.652 34.1162 137.518 34.1162H135.758C135.625 34.1162 135.512 34.0695 135.418 33.9762C135.325 33.8829 135.278 33.7695 135.278 33.6362V28.1362C135.278 27.3629 135.085 26.7562 134.698 26.3162C134.325 25.8762 133.778 25.6562 133.058 25.6562C132.365 25.6562 131.812 25.8762 131.398 26.3162C130.985 26.7562 130.778 27.3629 130.778 28.1362V33.6362C130.778 33.7695 130.732 33.8829 130.638 33.9762C130.545 34.0695 130.432 34.1162 130.298 34.1162H128.538Z" fill="#0B132A"/>
<path d="M144.619 34.1162C144.392 34.1162 144.212 34.0562 144.079 33.9362C143.945 33.8162 143.852 33.6762 143.799 33.5162L139.719 20.7162C139.692 20.6495 139.679 20.5895 139.679 20.5362C139.679 20.4295 139.719 20.3362 139.799 20.2562C139.892 20.1629 139.999 20.1162 140.119 20.1162H142.599C142.812 20.1162 142.979 20.1762 143.099 20.2962C143.219 20.4162 143.292 20.5295 143.319 20.6362L146.139 29.8762L148.979 20.6362C149.019 20.5295 149.092 20.4162 149.199 20.2962C149.319 20.1762 149.485 20.1162 149.699 20.1162H152.179C152.299 20.1162 152.399 20.1629 152.479 20.2562C152.572 20.3362 152.619 20.4295 152.619 20.5362C152.619 20.5895 152.605 20.6495 152.579 20.7162L148.499 33.5162C148.445 33.6762 148.352 33.8162 148.219 33.9362C148.099 34.0562 147.919 34.1162 147.679 34.1162H144.619ZM154.986 34.1162C154.839 34.1162 154.719 34.0695 154.626 33.9762C154.533 33.8829 154.486 33.7629 154.486 33.6162V20.6162C154.486 20.4695 154.533 20.3495 154.626 20.2562C154.719 20.1629 154.839 20.1162 154.986 20.1162H160.586C161.693 20.1162 162.653 20.2895 163.466 20.6362C164.293 20.9695 164.933 21.4762 165.386 22.1562C165.853 22.8362 166.086 23.6962 166.086 24.7362C166.086 25.7629 165.853 26.6095 165.386 27.2762C164.933 27.9429 164.293 28.4362 163.466 28.7562C162.653 29.0762 161.693 29.2362 160.586 29.2362H158.206V33.6162C158.206 33.7629 158.153 33.8829 158.046 33.9762C157.953 34.0695 157.833 34.1162 157.686 34.1162H154.986ZM158.146 26.4762H160.486C161.059 26.4762 161.513 26.3295 161.846 26.0362C162.193 25.7429 162.366 25.2962 162.366 24.6962C162.366 24.1895 162.219 23.7629 161.926 23.4162C161.633 23.0695 161.153 22.8962 160.486 22.8962H158.146V26.4762ZM168.502 34.1162C168.355 34.1162 168.235 34.0695 168.142 33.9762C168.048 33.8829 168.002 33.7629 168.002 33.6162V20.6162C168.002 20.4695 168.048 20.3495 168.142 20.2562C168.235 20.1629 168.355 20.1162 168.502 20.1162H170.622C170.848 20.1162 171.008 20.1695 171.102 20.2762C171.208 20.3695 171.275 20.4429 171.302 20.4962L176.182 28.1962V20.6162C176.182 20.4695 176.228 20.3495 176.322 20.2562C176.415 20.1629 176.535 20.1162 176.682 20.1162H179.082C179.228 20.1162 179.348 20.1629 179.442 20.2562C179.535 20.3495 179.582 20.4695 179.582 20.6162V33.6162C179.582 33.7495 179.535 33.8695 179.442 33.9762C179.348 34.0695 179.228 34.1162 179.082 34.1162H176.942C176.728 34.1162 176.568 34.0629 176.462 33.9562C176.368 33.8495 176.308 33.7762 176.282 33.7362L171.402 26.3362V33.6162C171.402 33.7629 171.355 33.8829 171.262 33.9762C171.168 34.0695 171.048 34.1162 170.902 34.1162H168.502Z" fill="#F53838"/>
<path d="M45.8333 16.0416C45.8333 16.0416 45.8333 6.8749 34.375 6.8749C30.8687 6.8749 27.8437 7.31032 25.2083 8.02074C24.0625 7.0124 16.6375 0.708027 9.16666 8.18115L15.0333 14.0478C5.72916 24.1312 9.16666 41.2499 9.16666 41.2499C9.16666 41.2499 2.29166 41.2499 2.29166 50.4166L11.4583 48.1249L20.625 50.4166C20.625 41.2499 13.75 41.2499 13.75 41.2499C13.75 41.2499 15.6979 28.0499 29.7917 25.6207V32.0832C34.375 32.0832 35.9333 27.9353 36.4146 25.2082H41.25C50.4167 25.2082 52.7083 22.9166 52.7083 20.6249C52.7083 18.3332 48.125 16.0416 45.8333 16.0416ZM41.25 18.3332C39.9896 18.3332 38.9583 17.302 38.9583 16.0416C38.9583 14.7812 39.9896 13.7499 41.25 13.7499C42.5104 13.7499 43.5417 14.7812 43.5417 16.0416C43.5417 17.302 42.5104 18.3332 41.25 18.3332Z" fill="#F53838"/>
</svg>
